<svg width="21" height="21" viewBox="0 0 21 21" fill="none" xmlns="http://www.w3.org/2000/svg">
<path d="M0.384422 17.8844C-0.128141 18.397 -0.128141 19.228 0.384422 19.7406C0.896985 20.2531 1.72801 20.2531 2.24058 19.7406L1.3125 18.8125L0.384422 17.8844ZM20.125 1.3125C20.125 0.587626 19.5374 -1.19987e-07 18.8125 3.01481e-07L7 2.59334e-07C6.27513 9.33684e-07 5.6875 0.587626 5.6875 1.3125C5.6875 2.03737 6.27513 2.625 7 2.625L17.5 2.625L17.5 13.125C17.5 13.8499 18.0876 14.4375 18.8125 14.4375C19.5374 14.4375 20.125 13.8499 20.125 13.125L20.125 1.3125ZM1.3125 18.8125L2.24058 19.7406L19.7406 2.24058L18.8125 1.3125L17.8844 0.384423L0.384422 17.8844L1.3125 18.8125Z" fill="#101011"/>
</svg>
