<svg width="188" height="50" viewBox="0 0 188 50" fill="none" xmlns="http://www.w3.org/2000/svg">
<rect width="188" height="50" rx="25" fill="#E6FF4B"/>
<mask id="mask0_1_49" style="mask-type:alpha" maskUnits="userSpaceOnUse" x="0" y="0" width="188" height="50">
<rect width="188" height="50" rx="25" fill="#E6FF4B"/>
</mask>
<g mask="url(#mask0_1_49)">
<rect x="-5" y="26" width="24" height="24" rx="12" fill="#101011"/>
<rect x="152" y="-12" width="24" height="24" rx="12" fill="#101011"/>
<rect x="170.5" y="1.5" width="21" height="21" rx="10.5" fill="#101011" stroke="#E6FF4B" stroke-width="3"/>
<rect x="11.5" y="31.5" width="21" height="21" rx="10.5" fill="#101011" stroke="#E6FF4B" stroke-width="3"/>
</g>
<path d="M74.22 28.78C74.22 30.1 73.76 31.1333 72.84 31.88C71.9333 32.6267 70.6867 33 69.1 33H63.48V18.64H68.88C70.3867 18.64 71.5733 18.9733 72.44 19.64C73.32 20.2933 73.76 21.2333 73.76 22.46C73.76 23.1133 73.58 23.7 73.22 24.22C72.8733 24.74 72.38 25.1667 71.74 25.5C72.54 25.78 73.1533 26.2 73.58 26.76C74.0067 27.3067 74.22 27.98 74.22 28.78ZM68.64 21.04H66.24V24.38H68.64C69.3867 24.38 69.9467 24.2333 70.32 23.94C70.6933 23.6333 70.88 23.22 70.88 22.7C70.88 22.1933 70.6933 21.7933 70.32 21.5C69.9467 21.1933 69.3867 21.04 68.64 21.04ZM68.86 26.8H66.24V30.6H68.86C69.6867 30.6 70.3067 30.4267 70.72 30.08C71.1467 29.7333 71.36 29.26 71.36 28.66C71.36 28.0867 71.1467 27.6333 70.72 27.3C70.3067 26.9667 69.6867 26.8 68.86 26.8ZM82.6892 28.5V22.32H85.4492V33H82.9092V31.6C82.6292 32.0667 82.2092 32.4533 81.6492 32.76C81.0892 33.0533 80.4692 33.2 79.7892 33.2C79.0826 33.2 78.4492 33.0533 77.8892 32.76C77.3292 32.4667 76.8892 32.02 76.5692 31.42C76.2492 30.8067 76.0892 30.04 76.0892 29.12V22.32H78.8692V28.58C78.8692 29.3267 79.0359 29.8733 79.3692 30.22C79.7159 30.5667 80.1692 30.74 80.7292 30.74C81.0626 30.74 81.3759 30.6533 81.6692 30.48C81.9759 30.3067 82.2226 30.0533 82.4092 29.72C82.5959 29.3733 82.6892 28.9667 82.6892 28.5ZM97.567 22.32L92.367 36.86H89.347L90.867 32.88L86.667 22.32H89.667L92.347 29.64L94.787 22.32H97.567ZM101.567 33H98.7869V22.32H101.567V33ZM102.007 19.84C102.007 20.3067 101.834 20.7 101.487 21.02C101.154 21.3267 100.707 21.48 100.147 21.48C99.6002 21.48 99.1535 21.3267 98.8069 21.02C98.4735 20.7 98.3069 20.3067 98.3069 19.84C98.3069 19.3467 98.4735 18.9467 98.8069 18.64C99.1535 18.32 99.6002 18.16 100.147 18.16C100.707 18.16 101.154 18.32 101.487 18.64C101.834 18.9467 102.007 19.3467 102.007 19.84ZM106.821 27.18V33H104.041V22.32H106.601V23.84C107.001 23.3067 107.467 22.8867 108.001 22.58C108.547 22.2733 109.174 22.12 109.881 22.12C110.961 22.12 111.834 22.4667 112.501 23.16C113.167 23.84 113.501 24.82 113.501 26.1V33H110.741V27.04C110.741 26.24 110.581 25.6333 110.261 25.22C109.954 24.7933 109.487 24.58 108.861 24.58C108.487 24.58 108.141 24.68 107.821 24.88C107.514 25.0667 107.267 25.3533 107.081 25.74C106.907 26.1133 106.821 26.5933 106.821 27.18ZM120.436 37.06C119.49 37.06 118.65 36.8933 117.916 36.56C117.183 36.24 116.61 35.7733 116.196 35.16C115.783 34.56 115.556 33.8533 115.516 33.04H118.196C118.263 33.6533 118.483 34.1133 118.856 34.42C119.23 34.74 119.75 34.9 120.416 34.9C121.19 34.9 121.77 34.7 122.156 34.3C122.556 33.9 122.756 33.3133 122.756 32.54V30.98C122.463 31.4867 122.056 31.8867 121.536 32.18C121.016 32.46 120.43 32.6 119.776 32.6C118.91 32.6 118.13 32.3733 117.436 31.92C116.743 31.4667 116.196 30.8467 115.796 30.06C115.396 29.26 115.196 28.36 115.196 27.36C115.196 26.32 115.383 25.4067 115.756 24.62C116.143 23.8333 116.67 23.22 117.336 22.78C118.016 22.34 118.796 22.12 119.676 22.12C120.396 22.12 121.03 22.26 121.576 22.54C122.123 22.8067 122.59 23.22 122.976 23.78V22.32H125.516V32.5C125.516 33.9267 125.063 35.04 124.156 35.84C123.263 36.6533 122.023 37.06 120.436 37.06ZM117.976 27.36C117.976 28.2267 118.19 28.92 118.616 29.44C119.043 29.9467 119.61 30.2 120.316 30.2C120.81 30.2 121.236 30.0867 121.596 29.86C121.956 29.62 122.236 29.2867 122.436 28.86C122.636 28.4333 122.736 27.94 122.736 27.38C122.736 26.5133 122.516 25.82 122.076 25.3C121.636 24.78 121.05 24.52 120.316 24.52C119.61 24.52 119.043 24.78 118.616 25.3C118.19 25.8067 117.976 26.4933 117.976 27.36Z" fill="#101011"/>
</svg>
