<svg width="19" height="19" viewBox="0 0 19 19" fill="none" xmlns="http://www.w3.org/2000/svg">
<path d="M10.0555 0.00810082L10.447 0.0559255C12.3948 0.336457 14.2038 1.23957 15.6004 2.6359C17.0902 4.12532 18.0194 6.084 18.2299 8.18L18.238 8.36484C18.2275 9.20986 17.551 9.83361 16.7814 9.91296L16.6153 9.92109L9.97445 9.92192C9.5343 9.92192 9.11208 9.74754 8.80075 9.43637C8.4895 9.12504 8.31445 8.70215 8.31445 8.26192L8.31445 1.6219C8.31462 0.786749 8.96468 0.0113046 9.8707 0L10.0555 0.00810082ZM16.5675 8.26109C16.379 6.57823 15.6255 5.00803 14.4268 3.80957C13.228 2.61103 11.6575 1.85771 9.97445 1.66973L9.97445 8.26192L16.5675 8.26109Z" fill="#C0EE2B"/>
<path d="M5.47863 0.735488C5.89862 0.552365 6.38785 0.744411 6.57126 1.16427C6.75459 1.5844 6.56261 2.07436 6.14248 2.2577C5.02418 2.74572 4.0422 3.50001 3.28287 4.45509C2.52358 5.41015 2.00998 6.53671 1.7866 7.73619C1.56322 8.93579 1.63672 10.1722 2.00139 11.3366C2.36608 12.501 3.01096 13.5581 3.87862 14.4159C4.74626 15.2737 5.81059 15.9061 6.97896 16.2575C8.14743 16.6088 9.38488 16.6688 10.5818 16.4318C11.7786 16.1946 12.8989 15.6675 13.8451 14.8973C14.7914 14.1272 15.5349 13.1372 16.0101 12.0134L16.0474 11.9364C16.2495 11.5677 16.7022 11.4045 17.0978 11.5717C17.52 11.7502 17.7179 12.2373 17.5395 12.6594L17.4269 12.9156C16.8443 14.1838 15.9775 15.3028 14.8932 16.1853C13.7365 17.1266 12.3665 17.7704 10.9036 18.0601C9.44091 18.3497 7.92956 18.2763 6.50155 17.8469C5.07336 17.4176 3.77198 16.6446 2.71143 15.596C1.65101 14.5477 0.863295 13.2557 0.417585 11.8327C-0.0281248 10.4095 -0.118865 8.89836 0.154152 7.43223C0.427188 5.96612 1.05547 4.58898 1.98356 3.42164C2.91165 2.25436 4.11183 1.33194 5.47863 0.735488Z" fill="#C0EE2B"/>
</svg>
