<svg width="46" height="46" viewBox="0 0 46 46" fill="none" xmlns="http://www.w3.org/2000/svg">
<g filter="url(#filter0_d_1050_6272)">
<rect x="4" y="2" width="38" height="38" rx="16" fill="white"/>
<rect x="4.5" y="2.5" width="37" height="37" rx="15.5" stroke="#E4E2DD" stroke-opacity="0.5"/>
<path d="M24.6602 28.4851V21.8451H21.3402L21.3402 28.4851C21.3402 28.9435 20.9686 29.3151 20.5102 29.3151C20.0518 29.3151 19.6802 28.9435 19.6802 28.4851L19.6802 21.8451C19.6802 21.4048 19.8552 20.9827 20.1665 20.6714C20.4778 20.3601 20.8999 20.1851 21.3402 20.1851H24.6602C25.1004 20.1851 25.5225 20.3601 25.8339 20.6714C26.1451 20.9827 26.3202 21.4048 26.3202 21.8451V28.4851C26.3202 28.9435 25.9486 29.3151 25.4902 29.3151C25.0318 29.3151 24.6602 28.9435 24.6602 28.4851Z" fill="#C0EE2B"/>
<path d="M29.6402 19.3347L29.6353 19.2447C29.6256 19.1551 29.6013 19.0674 29.5632 18.9853C29.5124 18.8758 29.4382 18.7787 29.346 18.7008L29.3419 18.6968L23.536 13.7208C23.4048 13.61 23.2431 13.5437 23.0732 13.5287L23.0002 13.5255C22.8041 13.5255 22.6142 13.595 22.4644 13.7216L22.4636 13.7208L16.6585 18.6968L16.6544 18.7008C16.5622 18.7787 16.488 18.8758 16.4372 18.9853C16.3864 19.0948 16.3602 19.214 16.3602 19.3347L16.3602 26.8047C16.3602 27.0248 16.4477 27.2366 16.6034 27.3923C16.759 27.5479 16.9702 27.6347 17.1902 27.6347L28.8102 27.6347C29.0302 27.6347 29.2414 27.5479 29.397 27.3923C29.5527 27.2366 29.6402 27.0248 29.6402 26.8047L29.6402 19.3347ZM31.3002 26.8047C31.3002 27.465 31.0377 28.099 30.5707 28.566C30.1038 29.0328 29.4705 29.2947 28.8102 29.2947L17.1902 29.2947C16.5299 29.2947 15.8966 29.0328 15.4297 28.566C14.9627 28.099 14.7002 27.465 14.7002 26.8047L14.7002 19.3347C14.7002 18.9727 14.7789 18.615 14.9312 18.2866C15.0836 17.9581 15.3063 17.6669 15.5829 17.4331L21.3888 12.4572L21.3929 12.4539L21.5671 12.3194C21.9852 12.0251 22.4854 11.8655 23.0002 11.8655L23.2198 11.8752C23.6563 11.9139 24.0749 12.0672 24.4333 12.3194L24.6075 12.4539L24.6116 12.4572L30.4175 17.4331L30.5188 17.5231C30.7487 17.74 30.9358 17.9992 31.0692 18.2866C31.2215 18.615 31.3002 18.9727 31.3002 19.3347V26.8047Z" fill="#C0EE2B"/>
</g>
<defs>
<filter id="filter0_d_1050_6272" x="0" y="0" width="46" height="46" filterUnits="userSpaceOnUse" color-interpolation-filters="sRGB">
<feFlood flood-opacity="0" result="BackgroundImageFix"/>
<feColorMatrix in="SourceAlpha" type="matrix" values="0 0 0 0 0 0 0 0 0 0 0 0 0 0 0 0 0 0 127 0" result="hardAlpha"/>
<feOffset dy="2"/>
<feGaussianBlur stdDeviation="2"/>
<feColorMatrix type="matrix" values="0 0 0 0 0 0 0 0 0 0 0 0 0 0 0 0 0 0 0.08 0"/>
<feBlend mode="normal" in2="BackgroundImageFix" result="effect1_dropShadow_1050_6272"/>
<feBlend mode="normal" in="SourceGraphic" in2="effect1_dropShadow_1050_6272" result="shape"/>
</filter>
</defs>
</svg>
