<svg width="11" height="11" viewBox="0 0 11 11" fill="none" xmlns="http://www.w3.org/2000/svg">
<path d="M10 5.5C10 3.01472 7.9853 1 5.5 1C3.01472 1 1 3.01472 1 5.5C1 7.9853 3.01472 10 5.5 10C7.9853 10 10 7.9853 10 5.5ZM11 5.5C11 8.53755 8.53755 11 5.5 11C2.46244 11 0 8.53755 0 5.5C0 2.46244 2.46244 0 5.5 0C8.53755 0 11 2.46244 11 5.5Z" fill="#101011" fill-opacity="0.6"/>
<path d="M5 7.5L5 5.5C5 5.22385 5.22385 5 5.5 5C5.77615 5 6 5.22385 6 5.5L6 7.5C6 7.77615 5.77615 8 5.5 8C5.22385 8 5 7.77615 5 7.5Z" fill="#101011" fill-opacity="0.6"/>
<path d="M5.5049 3L5.55615 3.00244C5.80825 3.02805 6.0049 3.24112 6.0049 3.5C6.0049 3.75888 5.80825 3.97195 5.55615 3.99756L5.5049 4H5.5C5.22385 4 5 3.77614 5 3.5C5 3.22386 5.22385 3 5.5 3H5.5049Z" fill="#101011" fill-opacity="0.6"/>
</svg>
