<svg width="188" height="50" viewBox="0 0 188 50" fill="none" xmlns="http://www.w3.org/2000/svg">
<rect width="188" height="50" rx="25" fill="#E6FF4B"/>
<mask id="mask0_1_117" style="mask-type:alpha" maskUnits="userSpaceOnUse" x="0" y="0" width="188" height="50">
<rect width="188" height="50" rx="25" fill="#E6FF4B"/>
</mask>
<g mask="url(#mask0_1_117)">
<rect x="-5" y="26" width="24" height="24" rx="12" fill="#101011"/>
<rect x="152" y="-12" width="24" height="24" rx="12" fill="#101011"/>
<rect x="170.5" y="1.5" width="21" height="21" rx="10.5" fill="#101011" stroke="#E6FF4B" stroke-width="3"/>
<rect x="11.5" y="31.5" width="21" height="21" rx="10.5" fill="#101011" stroke="#E6FF4B" stroke-width="3"/>
</g>
<path d="M50.76 33H41.48V18.64H44.52V30.26H50.76V33ZM57.0128 33.18C55.9461 33.18 55.0061 32.9533 54.1928 32.5C53.3928 32.0333 52.7728 31.38 52.3328 30.54C51.8928 29.7 51.6728 28.7267 51.6728 27.62C51.6728 26.5533 51.8995 25.6067 52.3528 24.78C52.8061 23.9533 53.4328 23.3067 54.2328 22.84C55.0328 22.36 55.9461 22.12 56.9728 22.12C57.8128 22.12 58.5728 22.28 59.2528 22.6C59.9461 22.9067 60.5261 23.3467 60.9928 23.92C61.4595 24.4933 61.7928 25.16 61.9928 25.92C62.1928 26.6667 62.2261 27.4733 62.0928 28.34H53.3128V26.58H59.1528C59.1261 25.8333 58.9061 25.2467 58.4928 24.82C58.0928 24.38 57.5661 24.16 56.9128 24.16C56.3928 24.16 55.9528 24.2933 55.5928 24.56C55.2328 24.8267 54.9528 25.22 54.7528 25.74C54.5661 26.2467 54.4728 26.8733 54.4728 27.62C54.4728 28.3533 54.5661 28.9733 54.7528 29.48C54.9395 29.9867 55.2195 30.3733 55.5928 30.64C55.9661 30.9067 56.4195 31.04 56.9528 31.04C57.5661 31.04 58.0728 30.8933 58.4728 30.6C58.8728 30.3067 59.1528 29.9 59.3128 29.38H62.0728C61.7661 30.58 61.1728 31.5133 60.2928 32.18C59.4128 32.8467 58.3195 33.18 57.0128 33.18ZM70.3148 33V31.68C69.9682 32.1733 69.5282 32.5533 68.9948 32.82C68.4615 33.0733 67.8282 33.2 67.0948 33.2C65.9882 33.2 65.0948 32.9 64.4148 32.3C63.7348 31.7 63.3948 30.9 63.3948 29.9C63.3948 28.86 63.8082 28.0667 64.6348 27.52C65.4615 26.9733 66.6482 26.7 68.1948 26.7C68.5015 26.7 68.7948 26.7133 69.0748 26.74C69.3548 26.7533 69.6548 26.78 69.9748 26.82V26.18C69.9748 25.58 69.8148 25.1133 69.4948 24.78C69.1748 24.4467 68.7215 24.28 68.1348 24.28C67.5348 24.28 67.0615 24.4467 66.7148 24.78C66.3682 25.1133 66.1682 25.58 66.1148 26.18H63.6148C63.6682 25.3533 63.8882 24.64 64.2748 24.04C64.6748 23.4267 65.2015 22.9533 65.8548 22.62C66.5215 22.2867 67.2815 22.12 68.1348 22.12C69.5348 22.12 70.6215 22.4867 71.3948 23.22C72.1815 23.9533 72.5748 24.9733 72.5748 26.28V33H70.3148ZM66.0148 29.82C66.0148 30.26 66.1615 30.6133 66.4548 30.88C66.7615 31.1467 67.1748 31.28 67.6948 31.28C68.4015 31.28 68.9548 31.1 69.3548 30.74C69.7682 30.3667 69.9748 29.8733 69.9748 29.26V28.5C69.6548 28.4467 69.3682 28.4133 69.1148 28.4C68.8615 28.3733 68.6148 28.36 68.3748 28.36C67.6015 28.36 67.0148 28.48 66.6148 28.72C66.2148 28.96 66.0148 29.3267 66.0148 29.82ZM77.7505 27.82V33H74.9705V22.32H77.5305V24.38C77.9305 23.7 78.5105 23.1667 79.2705 22.78C80.0305 22.3933 80.8371 22.2 81.6905 22.2V25.08C80.9171 25.0267 80.2305 25.0667 79.6305 25.2C79.0438 25.32 78.5838 25.5933 78.2505 26.02C77.9171 26.4333 77.7505 27.0333 77.7505 27.82ZM85.9145 27.18V33H83.1345V22.32H85.6945V23.84C86.0945 23.3067 86.5612 22.8867 87.0945 22.58C87.6412 22.2733 88.2679 22.12 88.9745 22.12C90.0545 22.12 90.9279 22.4667 91.5945 23.16C92.2612 23.84 92.5945 24.82 92.5945 26.1V33H89.8345V27.04C89.8345 26.24 89.6745 25.6333 89.3545 25.22C89.0479 24.7933 88.5812 24.58 87.9545 24.58C87.5812 24.58 87.2345 24.68 86.9145 24.88C86.6079 25.0667 86.3612 25.3533 86.1745 25.74C86.0012 26.1133 85.9145 26.5933 85.9145 27.18ZM105.93 33L102.17 23.46V33H99.4097V18.64H103.05L107.21 29.28L111.39 18.64H115.03V33H112.27V23.38L108.47 33H105.93ZM122.444 33.2C121.671 33.2 120.951 33.06 120.284 32.78C119.631 32.5 119.058 32.1067 118.564 31.6C118.084 31.0933 117.704 30.5067 117.424 29.84C117.158 29.16 117.024 28.4333 117.024 27.66C117.024 26.8733 117.158 26.1467 117.424 25.48C117.704 24.8133 118.084 24.2267 118.564 23.72C119.058 23.2133 119.631 22.82 120.284 22.54C120.951 22.26 121.671 22.12 122.444 22.12C123.218 22.12 123.931 22.26 124.584 22.54C125.251 22.82 125.824 23.2133 126.304 23.72C126.798 24.2267 127.178 24.8133 127.444 25.48C127.724 26.1467 127.864 26.8733 127.864 27.66C127.864 28.4333 127.724 29.16 127.444 29.84C127.178 30.5067 126.798 31.0933 126.304 31.6C125.824 32.1067 125.251 32.5 124.584 32.78C123.931 33.06 123.218 33.2 122.444 33.2ZM122.444 30.74C122.911 30.74 123.338 30.62 123.724 30.38C124.111 30.14 124.418 29.7933 124.644 29.34C124.884 28.8733 125.004 28.3133 125.004 27.66C125.004 26.9933 124.884 26.4333 124.644 25.98C124.418 25.5267 124.111 25.1867 123.724 24.96C123.338 24.72 122.911 24.6 122.444 24.6C121.991 24.6 121.564 24.72 121.164 24.96C120.778 25.1867 120.464 25.5267 120.224 25.98C119.998 26.4333 119.884 26.9933 119.884 27.66C119.884 28.3133 119.998 28.8733 120.224 29.34C120.464 29.7933 120.778 30.14 121.164 30.38C121.564 30.62 121.991 30.74 122.444 30.74ZM132.418 27.82V33H129.638V22.32H132.198V24.38C132.598 23.7 133.178 23.1667 133.938 22.78C134.698 22.3933 135.505 22.2 136.358 22.2V25.08C135.585 25.0267 134.898 25.0667 134.298 25.2C133.712 25.32 133.252 25.5933 132.918 26.02C132.585 26.4333 132.418 27.0333 132.418 27.82ZM142.364 33.18C141.298 33.18 140.358 32.9533 139.544 32.5C138.744 32.0333 138.124 31.38 137.684 30.54C137.244 29.7 137.024 28.7267 137.024 27.62C137.024 26.5533 137.251 25.6067 137.704 24.78C138.158 23.9533 138.784 23.3067 139.584 22.84C140.384 22.36 141.298 22.12 142.324 22.12C143.164 22.12 143.924 22.28 144.604 22.6C145.298 22.9067 145.878 23.3467 146.344 23.92C146.811 24.4933 147.144 25.16 147.344 25.92C147.544 26.6667 147.578 27.4733 147.444 28.34H138.664V26.58H144.504C144.478 25.8333 144.258 25.2467 143.844 24.82C143.444 24.38 142.918 24.16 142.264 24.16C141.744 24.16 141.304 24.2933 140.944 24.56C140.584 24.8267 140.304 25.22 140.104 25.74C139.918 26.2467 139.824 26.8733 139.824 27.62C139.824 28.3533 139.918 28.9733 140.104 29.48C140.291 29.9867 140.571 30.3733 140.944 30.64C141.318 30.9067 141.771 31.04 142.304 31.04C142.918 31.04 143.424 30.8933 143.824 30.6C144.224 30.3067 144.504 29.9 144.664 29.38H147.424C147.118 30.58 146.524 31.5133 145.644 32.18C144.764 32.8467 143.671 33.18 142.364 33.18Z" fill="#101011"/>
</svg>
