<svg width="83" height="83" viewBox="0 0 83 83" fill="none" xmlns="http://www.w3.org/2000/svg">
<circle cx="29.1832" cy="29.1832" r="28.0889" transform="matrix(-0.707107 0.707107 0.707107 0.707107 41.2713 0)" stroke="black" stroke-width="2.18874"/>
<path d="M51.5892 40.1771C52.1936 40.1771 52.6836 40.6671 52.6836 41.2715C52.6836 41.8759 52.1936 42.3659 51.5892 42.3659V41.2715V40.1771ZM30.1797 42.0453C29.7523 41.6179 29.7523 40.925 30.1797 40.4976L37.1442 33.5331C37.5716 33.1057 38.2645 33.1057 38.6919 33.5331C39.1193 33.9605 39.1193 34.6534 38.6919 35.0808L32.5012 41.2715L38.6919 47.4622C39.1193 47.8896 39.1193 48.5825 38.6919 49.0099C38.2645 49.4372 37.5716 49.4372 37.1442 49.0099L30.1797 42.0453ZM51.5892 41.2715V42.3659H30.9535V41.2715V40.1771H51.5892V41.2715Z" fill="black"/>
</svg>
