<svg width="18" height="17" viewBox="0 0 18 17" fill="none" xmlns="http://www.w3.org/2000/svg">
<path d="M13.2849 9.13C13.0648 9.13 12.8537 9.21748 12.6981 9.37319C12.5424 9.52882 12.4549 9.73988 12.4549 9.96L12.459 10.0418C12.4778 10.2319 12.5618 10.4106 12.6981 10.5468C12.8537 10.7025 13.0648 10.79 13.2849 10.79H15.7749V9.13H13.2849ZM2.49488 1.66C2.27475 1.66 2.06371 1.74751 1.90805 1.90317C1.75239 2.05882 1.66488 2.26987 1.66488 2.49L1.66893 2.57186C1.68777 2.76193 1.77181 2.9406 1.90805 3.07683C2.06371 3.23249 2.27475 3.32 2.49488 3.32L13.2849 3.32V1.66L2.49488 1.66ZM14.9449 3.32C15.3851 3.32 15.8073 3.49501 16.1186 3.80633C16.4298 4.11764 16.6049 4.53974 16.6049 4.98L16.6049 7.69368C16.7292 7.76556 16.8453 7.85304 16.9486 7.9563C17.2598 8.26763 17.4349 8.68977 17.4349 9.13V10.79C17.4349 11.2302 17.2598 11.6524 16.9486 11.9637C16.6373 12.275 16.2151 12.45 15.7749 12.45H13.2849C12.6245 12.45 11.9913 12.1875 11.5244 11.7205C11.1158 11.312 10.8637 10.7763 10.807 10.2064L10.7949 9.96C10.7949 9.29957 11.0574 8.66644 11.5244 8.19949C11.9913 7.73253 12.6245 7.47 13.2849 7.47H14.9449V4.98L2.49488 4.98C1.83449 4.98 1.20134 4.71747 0.734378 4.2505C0.325852 3.84199 0.0736982 3.30631 0.0170424 2.73641L0.00488281 2.49C0.00488281 1.82961 0.267412 1.19646 0.734378 0.729495C1.20134 0.262529 1.83449 0 2.49488 0L13.2849 0L13.4486 0.00810903C13.8288 0.0457744 14.1861 0.213849 14.4586 0.48633C14.7698 0.797638 14.9449 1.21974 14.9449 1.66V3.32Z" fill="#101011" fill-opacity="0.6"/>
<path d="M0 14.115L0 2.49504C0 2.03665 0.371608 1.66504 0.83 1.66504C1.28839 1.66504 1.66 2.03665 1.66 2.49504L1.66 14.115C1.66 14.3352 1.74751 14.5462 1.90317 14.7018C2.05882 14.8576 2.26987 14.945 2.49 14.945L14.94 14.945L14.94 11.625C14.94 11.1666 15.3116 10.795 15.77 10.795C16.2284 10.795 16.6 11.1666 16.6 11.625V14.945C16.6 15.3853 16.425 15.8074 16.1137 16.1187C15.8024 16.43 15.3802 16.605 14.94 16.605L2.49 16.605C1.82961 16.605 1.19646 16.3425 0.729495 15.8756C0.262529 15.4086 0 14.7754 0 14.115Z" fill="#101011" fill-opacity="0.6"/>
</svg>
