<svg width="188" height="50" viewBox="0 0 188 50" fill="none" xmlns="http://www.w3.org/2000/svg">
<rect width="188" height="50" rx="25" fill="white"/>
<mask id="mask0_1_58" style="mask-type:alpha" maskUnits="userSpaceOnUse" x="0" y="0" width="188" height="50">
<rect width="188" height="50" rx="25" fill="white"/>
</mask>
<g mask="url(#mask0_1_58)">
<rect x="-5" y="26" width="24" height="24" rx="12" fill="#E6FF4B"/>
<rect x="152" y="-12" width="24" height="24" rx="12" fill="#E6FF4B"/>
<rect x="170.5" y="1.5" width="21" height="21" rx="10.5" fill="#101011" stroke="white" stroke-width="3"/>
<rect x="11.5" y="31.5" width="21" height="21" rx="10.5" fill="#101011" stroke="white" stroke-width="3"/>
</g>
<path d="M50.52 33H47.48V18.64H53.1C54.9133 18.64 56.32 19.0467 57.32 19.86C58.32 20.66 58.82 21.8067 58.82 23.3C58.82 24.26 58.5333 25.1133 57.96 25.86C57.4 26.5933 56.6067 27.1267 55.58 27.46L59.28 33H55.66L52.42 27.92H50.52V33ZM50.52 21.16V25.42H52.96C53.88 25.42 54.58 25.2467 55.06 24.9C55.54 24.54 55.78 24.0067 55.78 23.3C55.78 22.58 55.54 22.0467 55.06 21.7C54.58 21.34 53.88 21.16 52.96 21.16H50.52ZM65.1417 33.18C64.0751 33.18 63.1351 32.9533 62.3217 32.5C61.5217 32.0333 60.9017 31.38 60.4617 30.54C60.0217 29.7 59.8017 28.7267 59.8017 27.62C59.8017 26.5533 60.0284 25.6067 60.4817 24.78C60.9351 23.9533 61.5617 23.3067 62.3617 22.84C63.1617 22.36 64.0751 22.12 65.1017 22.12C65.9417 22.12 66.7017 22.28 67.3817 22.6C68.0751 22.9067 68.6551 23.3467 69.1217 23.92C69.5884 24.4933 69.9217 25.16 70.1217 25.92C70.3217 26.6667 70.3551 27.4733 70.2217 28.34H61.4417V26.58H67.2817C67.2551 25.8333 67.0351 25.2467 66.6217 24.82C66.2217 24.38 65.6951 24.16 65.0417 24.16C64.5217 24.16 64.0817 24.2933 63.7217 24.56C63.3617 24.8267 63.0817 25.22 62.8817 25.74C62.6951 26.2467 62.6017 26.8733 62.6017 27.62C62.6017 28.3533 62.6951 28.9733 62.8817 29.48C63.0684 29.9867 63.3484 30.3733 63.7217 30.64C64.0951 30.9067 64.5484 31.04 65.0817 31.04C65.6951 31.04 66.2017 30.8933 66.6017 30.6C67.0017 30.3067 67.2817 29.9 67.4417 29.38H70.2017C69.8951 30.58 69.3017 31.5133 68.4217 32.18C67.5417 32.8467 66.4484 33.18 65.1417 33.18ZM75.7856 33H73.0256V24.7H70.8656V22.32H73.0256V21.74C73.0256 20.6733 73.3056 19.8533 73.8656 19.28C74.439 18.7067 75.279 18.42 76.3856 18.42C76.7323 18.42 77.0456 18.4533 77.3256 18.52C77.619 18.5733 77.879 18.6467 78.1056 18.74V20.94C77.959 20.8733 77.7923 20.8267 77.6056 20.8C77.419 20.7733 77.2323 20.76 77.0456 20.76C76.6723 20.76 76.3656 20.84 76.1256 21C75.899 21.16 75.7856 21.4267 75.7856 21.8V22.32H78.5656V24.7H75.7856V33ZM82.7456 33H79.9856V22.32H82.7456V33ZM83.2056 19.84C83.2056 20.3067 83.0323 20.7 82.6856 21.02C82.339 21.3267 81.8923 21.48 81.3456 21.48C80.799 21.48 80.3523 21.3267 80.0056 21.02C79.659 20.7 79.4856 20.3067 79.4856 19.84C79.4856 19.3467 79.659 18.9467 80.0056 18.64C80.3523 18.32 80.799 18.16 81.3456 18.16C81.8923 18.16 82.339 18.32 82.6856 18.64C83.0323 18.9467 83.2056 19.3467 83.2056 19.84ZM88.0278 27.18V33H85.2478V22.32H87.8078V23.84C88.2078 23.3067 88.6745 22.8867 89.2078 22.58C89.7545 22.2733 90.3811 22.12 91.0878 22.12C92.1678 22.12 93.0411 22.4667 93.7078 23.16C94.3745 23.84 94.7078 24.82 94.7078 26.1V33H91.9478V27.04C91.9478 26.24 91.7878 25.6333 91.4678 25.22C91.1611 24.7933 90.6945 24.58 90.0678 24.58C89.6945 24.58 89.3478 24.68 89.0278 24.88C88.7211 25.0667 88.4745 25.3533 88.2878 25.74C88.1145 26.1133 88.0278 26.5933 88.0278 27.18ZM103.463 33V31.68C103.117 32.1733 102.677 32.5533 102.143 32.82C101.61 33.0733 100.977 33.2 100.243 33.2C99.1366 33.2 98.2433 32.9 97.5633 32.3C96.8833 31.7 96.5433 30.9 96.5433 29.9C96.5433 28.86 96.9566 28.0667 97.7833 27.52C98.6099 26.9733 99.7966 26.7 101.343 26.7C101.65 26.7 101.943 26.7133 102.223 26.74C102.503 26.7533 102.803 26.78 103.123 26.82V26.18C103.123 25.58 102.963 25.1133 102.643 24.78C102.323 24.4467 101.87 24.28 101.283 24.28C100.683 24.28 100.21 24.4467 99.8633 24.78C99.5166 25.1133 99.3166 25.58 99.2633 26.18H96.7633C96.8166 25.3533 97.0366 24.64 97.4233 24.04C97.8233 23.4267 98.3499 22.9533 99.0033 22.62C99.6699 22.2867 100.43 22.12 101.283 22.12C102.683 22.12 103.77 22.4867 104.543 23.22C105.33 23.9533 105.723 24.9733 105.723 26.28V33H103.463ZM99.1633 29.82C99.1633 30.26 99.3099 30.6133 99.6033 30.88C99.9099 31.1467 100.323 31.28 100.843 31.28C101.55 31.28 102.103 31.1 102.503 30.74C102.917 30.3667 103.123 29.8733 103.123 29.26V28.5C102.803 28.4467 102.517 28.4133 102.263 28.4C102.01 28.3733 101.763 28.36 101.523 28.36C100.75 28.36 100.163 28.48 99.7633 28.72C99.3633 28.96 99.1633 29.3267 99.1633 29.82ZM110.899 27.18V33H108.119V22.32H110.679V23.84C111.079 23.3067 111.546 22.8867 112.079 22.58C112.626 22.2733 113.252 22.12 113.959 22.12C115.039 22.12 115.912 22.4667 116.579 23.16C117.246 23.84 117.579 24.82 117.579 26.1V33H114.819V27.04C114.819 26.24 114.659 25.6333 114.339 25.22C114.032 24.7933 113.566 24.58 112.939 24.58C112.566 24.58 112.219 24.68 111.899 24.88C111.592 25.0667 111.346 25.3533 111.159 25.74C110.986 26.1133 110.899 26.5933 110.899 27.18ZM124.474 33.2C123.448 33.2 122.541 32.9667 121.754 32.5C120.981 32.0333 120.374 31.38 119.934 30.54C119.494 29.7 119.274 28.74 119.274 27.66C119.274 26.5933 119.494 25.6467 119.934 24.82C120.388 23.98 121.008 23.32 121.794 22.84C122.581 22.36 123.474 22.12 124.474 22.12C125.394 22.12 126.228 22.32 126.974 22.72C127.721 23.1067 128.328 23.66 128.794 24.38C129.261 25.0867 129.548 25.92 129.654 26.88H126.734C126.668 26.1733 126.428 25.6133 126.014 25.2C125.614 24.7867 125.101 24.58 124.474 24.58C123.994 24.58 123.574 24.7067 123.214 24.96C122.868 25.2133 122.594 25.5667 122.394 26.02C122.208 26.4733 122.114 27.02 122.114 27.66C122.114 28.2867 122.208 28.8333 122.394 29.3C122.594 29.7667 122.868 30.1267 123.214 30.38C123.574 30.62 123.994 30.74 124.474 30.74C125.114 30.74 125.628 30.54 126.014 30.14C126.414 29.7267 126.654 29.16 126.734 28.44H129.654C129.561 29.4133 129.281 30.26 128.814 30.98C128.348 31.6867 127.748 32.2333 127.014 32.62C126.281 33.0067 125.434 33.2 124.474 33.2ZM136.04 33.18C134.973 33.18 134.033 32.9533 133.22 32.5C132.42 32.0333 131.8 31.38 131.36 30.54C130.92 29.7 130.7 28.7267 130.7 27.62C130.7 26.5533 130.927 25.6067 131.38 24.78C131.833 23.9533 132.46 23.3067 133.26 22.84C134.06 22.36 134.973 22.12 136 22.12C136.84 22.12 137.6 22.28 138.28 22.6C138.973 22.9067 139.553 23.3467 140.02 23.92C140.487 24.4933 140.82 25.16 141.02 25.92C141.22 26.6667 141.253 27.4733 141.12 28.34H132.34V26.58H138.18C138.153 25.8333 137.933 25.2467 137.52 24.82C137.12 24.38 136.593 24.16 135.94 24.16C135.42 24.16 134.98 24.2933 134.62 24.56C134.26 24.8267 133.98 25.22 133.78 25.74C133.593 26.2467 133.5 26.8733 133.5 27.62C133.5 28.3533 133.593 28.9733 133.78 29.48C133.967 29.9867 134.247 30.3733 134.62 30.64C134.993 30.9067 135.447 31.04 135.98 31.04C136.593 31.04 137.1 30.8933 137.5 30.6C137.9 30.3067 138.18 29.9 138.34 29.38H141.1C140.793 30.58 140.2 31.5133 139.32 32.18C138.44 32.8467 137.347 33.18 136.04 33.18Z" fill="black"/>
</svg>
