<svg width="83" height="83" viewBox="0 0 83 83" fill="none" xmlns="http://www.w3.org/2000/svg">
<circle cx="41.2713" cy="41.2713" r="28.0889" transform="rotate(45 41.2713 41.2713)" stroke="black" stroke-width="2.18874"/>
<path d="M30.9535 40.1771C30.3491 40.1771 29.8591 40.6671 29.8591 41.2715C29.8591 41.8759 30.3491 42.3659 30.9535 42.3659V41.2715V40.1771ZM52.363 42.0453C52.7903 41.6179 52.7903 40.925 52.363 40.4976L45.3984 33.5331C44.971 33.1057 44.2781 33.1057 43.8507 33.5331C43.4234 33.9605 43.4234 34.6534 43.8507 35.0808L50.0414 41.2715L43.8507 47.4622C43.4234 47.8896 43.4234 48.5825 43.8507 49.0099C44.2781 49.4372 44.971 49.4372 45.3984 49.0099L52.363 42.0453ZM30.9535 41.2715V42.3659H51.5891V41.2715V40.1771H30.9535V41.2715Z" fill="black"/>
</svg>
