<svg width="22" height="22" viewBox="0 0 22 22" fill="none" xmlns="http://www.w3.org/2000/svg">
<g clip-path="url(#clip0_63_222)">
<path fill-rule="evenodd" clip-rule="evenodd" d="M4.22098 11.5436C3.99398 11.4824 3.76382 11.4288 3.53076 11.3828C3.49432 11.3757 3.45785 11.3687 3.42131 11.3619L3.41023 11.3599L3.39524 11.3571C3.37218 11.3529 3.34686 11.3484 3.29623 11.3393L3.27854 11.3362C2.90715 11.2659 2.90715 10.7341 3.27854 10.6638L3.29623 10.6607C3.34686 10.6516 3.37218 10.6471 3.39524 10.6429L3.41023 10.6401L3.42131 10.6381C3.45785 10.6313 3.49433 10.6243 3.53073 10.6172C3.76379 10.5712 3.99398 10.5176 4.22098 10.4564C4.41487 10.4041 4.60647 10.3464 4.7956 10.2834C7.85552 9.26336 10.2634 6.85552 11.2834 3.7956C11.3464 3.60647 11.4041 3.41487 11.4564 3.22095C11.5176 2.99398 11.5712 2.76379 11.6172 2.53073C11.6243 2.49433 11.6313 2.45785 11.6381 2.42131L11.6401 2.41023L11.6429 2.39524C11.6471 2.37246 11.6515 2.34745 11.6604 2.29794L11.6607 2.29623L11.6638 2.27854C11.7341 1.90715 12.2659 1.90715 12.3362 2.27854L12.3394 2.29623C12.3484 2.34686 12.3529 2.37218 12.3571 2.39524L12.3599 2.41023L12.3619 2.42131C12.3687 2.45785 12.3757 2.49433 12.3828 2.53073C12.4288 2.76382 12.4824 2.99398 12.5436 3.22095C12.5959 3.41487 12.6536 3.60647 12.7166 3.7956C13.7366 6.85552 16.1445 9.26336 19.2044 10.2834C19.3935 10.3464 19.5851 10.4041 19.779 10.4564C20.006 10.5176 20.2362 10.5712 20.4693 10.6172C20.5057 10.6243 20.5421 10.6313 20.5787 10.6381L20.5898 10.6401L20.6048 10.6429C20.6278 10.6471 20.6531 10.6516 20.7038 10.6607L20.7215 10.6638C21.0928 10.7341 21.0928 11.2659 20.7215 11.3362L20.7038 11.3393L20.6502 11.3489L20.6048 11.3571L20.5898 11.3599L20.5787 11.3619C20.5421 11.3687 20.5057 11.3757 20.4693 11.3828C20.2362 11.4288 20.006 11.4824 19.779 11.5436C19.5851 11.5959 19.3935 11.6536 19.2044 11.7166C16.1445 12.7366 13.7366 15.1445 12.7166 18.2044C12.6536 18.3935 12.5959 18.5851 12.5436 18.779C12.4824 19.006 12.4288 19.2362 12.3828 19.4693C12.3757 19.5057 12.3687 19.5421 12.3619 19.5787L12.3599 19.5898L12.3571 19.6048L12.351 19.6385L12.3397 19.7018L12.3362 19.7215C12.2659 20.0928 11.7341 20.0928 11.6638 19.7215L11.6607 19.7038C11.6516 19.6532 11.6471 19.6278 11.6429 19.6048L11.6401 19.5898L11.6381 19.5787C11.6313 19.5421 11.6243 19.5057 11.6172 19.4693C11.5712 19.2362 11.5176 19.006 11.4564 18.779C11.4041 18.5851 11.3464 18.3935 11.2834 18.2044C10.2634 15.1445 7.85552 12.7366 4.7956 11.7166C4.60647 11.6536 4.41487 11.5959 4.22098 11.5436Z" fill="#101011"/>
</g>
<defs>
<clipPath id="clip0_63_222">
<rect width="22" height="22" fill="white"/>
</clipPath>
</defs>
</svg>
