<svg width="46" height="46" viewBox="0 0 46 46" fill="none" xmlns="http://www.w3.org/2000/svg">
<g filter="url(#filter0_d_1050_6331)">
<rect x="4" y="2" width="38" height="38" rx="16" fill="white"/>
<rect x="4.5" y="2.5" width="37" height="37" rx="15.5" stroke="#E4E2DD" stroke-opacity="0.5"/>
<path d="M28.8098 16.0196C26.8846 16.0196 24.6354 14.9103 23.0914 13.5629C23.0659 13.541 23.0334 13.5296 22.9998 13.5296C22.9662 13.5296 22.9337 13.5418 22.9082 13.5637L22.9074 13.5629C21.4204 14.8593 19.2559 15.9495 17.3713 16.0164L17.1898 16.0196L17.1898 21.8297L17.1971 22.1717C17.271 23.8528 17.8924 25.0989 18.8384 26.068C19.7412 26.9926 20.9688 27.6932 22.3805 28.2402L22.9965 28.4656L23.0152 28.4712C24.6794 27.8905 26.1312 27.1263 27.1612 26.0696C28.1699 25.0347 28.8098 23.6854 28.8098 21.8297V16.0196ZM30.4698 21.8297C30.4698 24.1239 29.6572 25.8878 28.3502 27.2287C27.0658 28.5464 25.3407 29.4197 23.555 30.0421L23.5485 30.0445C23.1932 30.1649 22.8079 30.1606 22.4551 30.034C22.4502 30.0323 22.4454 30.0308 22.4405 30.0291C22.4392 30.0286 22.4377 30.0288 22.4365 30.0283V30.0275C20.6526 29.4095 18.9324 28.5403 17.651 27.2279C16.4244 25.9716 15.6337 24.3431 15.5395 22.2544L15.5298 21.8297V16.0196C15.5299 15.5795 15.7049 15.1572 16.0161 14.846C16.3274 14.5348 16.7496 14.3596 17.1898 14.3596L17.4565 14.3499C18.8153 14.2499 20.5542 13.4156 21.8228 12.3073L21.8301 12.3016L21.9558 12.2028C22.2596 11.9867 22.6244 11.8696 22.9998 11.8696C23.3752 11.8696 23.74 11.9867 24.0438 12.2028L24.1694 12.3016L24.1767 12.3073L24.4377 12.527C25.7706 13.6021 27.5048 14.3596 28.8098 14.3596C29.2499 14.3596 29.6722 14.5348 29.9835 14.846C30.2947 15.1572 30.4697 15.5795 30.4698 16.0196V21.8297Z" fill="#3B82F6"/>
<path d="M24.9664 18.6964C25.2924 18.4305 25.7729 18.4492 26.0768 18.7531C26.3807 19.057 26.3995 19.5376 26.1336 19.8636L26.0768 19.9267L22.7568 23.2467C22.4529 23.5507 21.9724 23.5694 21.6464 23.3035L21.5832 23.2467L19.9231 21.5867L19.8664 21.5236C19.6005 21.1976 19.6193 20.717 19.9231 20.4131C20.227 20.1093 20.7076 20.0905 21.0336 20.3563L21.0968 20.4131L22.17 21.4862L24.9032 18.7531L24.9664 18.6964Z" fill="#3B82F6"/>
</g>
<defs>
<filter id="filter0_d_1050_6331" x="0" y="0" width="46" height="46" filterUnits="userSpaceOnUse" color-interpolation-filters="sRGB">
<feFlood flood-opacity="0" result="BackgroundImageFix"/>
<feColorMatrix in="SourceAlpha" type="matrix" values="0 0 0 0 0 0 0 0 0 0 0 0 0 0 0 0 0 0 127 0" result="hardAlpha"/>
<feOffset dy="2"/>
<feGaussianBlur stdDeviation="2"/>
<feColorMatrix type="matrix" values="0 0 0 0 0 0 0 0 0 0 0 0 0 0 0 0 0 0 0.08 0"/>
<feBlend mode="normal" in2="BackgroundImageFix" result="effect1_dropShadow_1050_6331"/>
<feBlend mode="normal" in="SourceGraphic" in2="effect1_dropShadow_1050_6331" result="shape"/>
</filter>
</defs>
</svg>
