<svg width="70" height="70" viewBox="0 0 70 70" fill="none" xmlns="http://www.w3.org/2000/svg">
<circle cx="35" cy="35" r="33.6875" stroke="black" stroke-width="2.625"/>
<path d="M25.3219 42.8219C24.8094 43.3345 24.8094 44.1655 25.3219 44.6781C25.8345 45.1906 26.6655 45.1906 27.1781 44.6781L26.25 43.75L25.3219 42.8219ZM45.0625 26.25C45.0625 25.5251 44.4749 24.9375 43.75 24.9375L31.9375 24.9375C31.2126 24.9375 30.625 25.5251 30.625 26.25C30.625 26.9749 31.2126 27.5625 31.9375 27.5625L42.4375 27.5625L42.4375 38.0625C42.4375 38.7874 43.0251 39.375 43.75 39.375C44.4749 39.375 45.0625 38.7874 45.0625 38.0625L45.0625 26.25ZM26.25 43.75L27.1781 44.6781L44.6781 27.1781L43.75 26.25L42.8219 25.3219L25.3219 42.8219L26.25 43.75Z" fill="black"/>
</svg>
