<svg width="150" height="185" viewBox="0 0 150 185" fill="none" xmlns="http://www.w3.org/2000/svg">
<path d="M113.626 7.7262L8.33626 62.3666C5.06556 64.064 3.7903 68.0907 5.48781 71.3618L84.1118 222.867C85.8091 226.138 89.8361 227.413 93.1068 225.716L198.397 171.076C201.667 169.378 202.943 165.351 201.245 162.08L122.621 10.5752C120.924 7.30447 116.897 6.02904 113.626 7.7262Z" fill="#2F4859"/>
<path d="M111.212 3.07318L5.9222 57.7136C2.65184 59.4108 1.37624 63.4377 3.07357 66.7084L81.6977 218.214C83.3951 221.485 87.4219 222.76 90.6926 221.063L195.983 166.422C199.253 164.725 200.528 160.698 198.831 157.427L120.207 5.92181C118.51 2.65111 114.483 1.37602 111.212 3.07318Z" fill="#E6FF4B"/>
<path d="M115.341 21.2113L18.3721 71.5334L40.143 113.485L137.112 63.163L115.341 21.2113Z" fill="#101011"/>
<path d="M133.034 55.3049L36.0649 105.627L40.1427 113.485L137.111 63.1626L133.034 55.3049Z" fill="#313137"/>
<path d="M66.5716 139.816C70.8107 137.616 72.4638 132.396 70.2639 128.157C68.064 123.918 62.8442 122.265 58.6052 124.465C54.3661 126.664 52.713 131.884 54.9129 136.123C57.1128 140.362 62.3326 142.015 66.5716 139.816Z" fill="#101011"/>
<path d="M58.6055 124.465C58.5088 124.515 58.4317 124.586 58.3379 124.64C62.21 122.822 66.8542 124.347 68.8424 128.179C70.8805 132.106 69.3492 136.942 65.4216 138.98C61.5907 140.968 56.9151 139.542 54.7949 135.827C54.8412 135.924 54.8627 136.027 54.9131 136.124C57.1129 140.363 62.3326 142.016 66.5716 139.816C70.8103 137.616 72.4638 132.396 70.2641 128.158C68.0642 123.918 62.8446 122.265 58.6055 124.465Z" fill="#62626E"/>
<path d="M92.1917 126.52C96.4308 124.32 98.0839 119.1 95.884 114.861C93.6841 110.622 88.4644 108.969 84.2253 111.169C79.9862 113.369 78.3332 118.589 80.533 122.828C82.7329 127.067 87.9527 128.72 92.1917 126.52Z" fill="#101011"/>
<path d="M84.2256 111.169C84.1289 111.219 84.0518 111.291 83.958 111.344C87.8301 109.526 92.4743 111.052 94.4625 114.883C96.5006 118.81 94.9694 123.646 91.0417 125.685C87.2108 127.673 82.5352 126.246 80.4151 122.531C80.4613 122.629 80.4828 122.731 80.5332 122.828C82.733 127.067 87.9527 128.72 92.1917 126.52C96.4304 124.321 98.0839 119.101 95.8842 114.862C93.6843 110.622 88.4647 108.969 84.2256 111.169Z" fill="#62626E"/>
<path d="M117.812 113.224C122.051 111.025 123.704 105.805 121.504 101.566C119.304 97.3267 114.084 95.6736 109.845 97.8734C105.606 100.073 103.953 105.293 106.153 109.532C108.353 113.771 113.573 115.424 117.812 113.224Z" fill="#101011"/>
<path d="M109.846 97.8736C109.749 97.9238 109.672 97.9951 109.578 98.0485C113.45 96.2309 118.094 97.7562 120.083 101.587C122.121 105.515 120.589 110.351 116.662 112.389C112.831 114.377 108.155 112.951 106.035 109.236C106.081 109.333 106.103 109.436 106.153 109.533C108.353 113.772 113.573 115.425 117.812 113.225C122.051 111.025 123.704 105.805 121.504 101.566C119.304 97.3266 114.084 95.674 109.846 97.8736Z" fill="#62626E"/>
<path d="M143.432 99.9286C147.672 97.7287 149.325 92.509 147.125 88.2699C144.925 84.0308 139.705 82.3777 135.466 84.5776C131.227 86.7775 129.574 91.9973 131.774 96.2363C133.974 100.475 139.193 102.128 143.432 99.9286Z" fill="#E56353"/>
<path d="M135.466 84.5779C135.369 84.6281 135.292 84.6993 135.198 84.7527C139.07 82.9351 143.715 84.4605 145.703 88.2917C147.741 92.219 146.21 97.055 142.282 99.0933C138.451 101.081 133.775 99.6551 131.655 95.94C131.702 96.0375 131.723 96.14 131.773 96.2371C133.973 100.476 139.193 102.129 143.432 99.929C147.671 97.7292 149.324 92.5093 147.124 88.2707C144.925 84.0308 139.705 82.3782 135.466 84.5779Z" fill="#D15241"/>
<path d="M77.6639 161.19C81.903 158.991 83.5561 153.771 81.3562 149.532C79.1563 145.293 73.9365 143.64 69.6975 145.839C65.4584 148.039 63.8053 153.259 66.0052 157.498C68.2051 161.737 73.4248 163.39 77.6639 161.19Z" fill="#101011"/>
<path d="M69.6968 145.839C69.6001 145.889 69.5232 145.961 69.4292 146.014C73.3015 144.196 77.9457 145.722 79.9337 149.553C81.9718 153.48 80.4407 158.316 76.5131 160.355C72.6822 162.343 68.0064 160.916 65.8862 157.201C65.9327 157.299 65.9542 157.401 66.0044 157.498C68.2042 161.737 73.4239 163.39 77.6629 161.19C81.9016 158.99 83.5551 153.77 81.3554 149.532C79.1557 145.292 73.9359 143.639 69.6968 145.839Z" fill="#62626E"/>
<path d="M103.285 147.895C107.524 145.695 109.177 140.475 106.977 136.236C104.777 131.997 99.5576 130.344 95.3186 132.544C91.0795 134.743 89.4264 139.963 91.6263 144.202C93.8262 148.441 99.0459 150.094 103.285 147.895Z" fill="#101011"/>
<path d="M95.3174 132.543C95.2207 132.593 95.1438 132.665 95.0498 132.718C98.9221 130.901 103.566 132.426 105.554 136.257C107.592 140.184 106.061 145.02 102.134 147.059C98.3028 149.047 93.627 147.62 91.5068 143.905C91.5533 144.003 91.5748 144.106 91.625 144.202C93.8248 148.441 99.0445 150.094 103.284 147.894C107.522 145.695 109.176 140.474 106.976 136.236C104.776 131.996 99.5565 130.343 95.3174 132.543Z" fill="#62626E"/>
<path d="M128.904 134.599C133.143 132.399 134.796 127.18 132.596 122.941C130.397 118.701 125.177 117.048 120.938 119.248C116.699 121.448 115.046 126.668 117.245 130.907C119.445 135.146 124.665 136.799 128.904 134.599Z" fill="#101011"/>
<path d="M120.938 119.248C120.841 119.298 120.764 119.369 120.67 119.422C124.542 117.605 129.186 119.13 131.174 122.961C133.213 126.889 131.681 131.725 127.754 133.763C123.923 135.751 119.247 134.325 117.127 130.61C117.173 130.708 117.195 130.81 117.245 130.907C119.445 135.146 124.665 136.799 128.904 134.599C133.142 132.399 134.796 127.179 132.596 122.94C130.396 118.701 125.176 117.048 120.938 119.248Z" fill="#62626E"/>
<path d="M154.525 121.304C158.764 119.104 160.417 113.884 158.217 109.645C156.017 105.406 150.797 103.753 146.558 105.953C142.319 108.152 140.666 113.372 142.866 117.611C145.066 121.85 150.286 123.503 154.525 121.304Z" fill="#FCD462"/>
<path d="M146.559 105.952C146.462 106.002 146.385 106.073 146.291 106.126C150.163 104.309 154.807 105.835 156.796 109.665C158.834 113.593 157.303 118.429 153.375 120.467C149.544 122.455 144.868 121.029 142.748 117.314C142.794 117.412 142.816 117.514 142.866 117.611C145.066 121.85 150.286 123.503 154.525 121.303C158.764 119.103 160.417 113.883 158.217 109.644C156.018 105.405 150.797 103.752 146.559 105.952Z" fill="#F6C358"/>
<path d="M88.7547 182.561C92.9938 180.362 94.6469 175.142 92.447 170.903C90.2471 166.664 85.0273 165.011 80.7883 167.21C76.5492 169.41 74.8961 174.63 77.096 178.869C79.2959 183.108 84.5157 184.761 88.7547 182.561Z" fill="#101011"/>
<path d="M80.7896 167.213C80.6929 167.263 80.6159 167.334 80.5222 167.388C84.3942 165.57 89.0384 167.096 91.0267 170.927C93.0648 174.854 91.5335 179.69 87.6059 181.728C83.7749 183.716 79.0993 182.29 76.979 178.575C77.0254 178.673 77.047 178.775 77.0972 178.872C79.297 183.111 84.5169 184.764 88.7559 182.564C92.9946 180.364 94.648 175.144 92.4482 170.905C90.2483 166.666 85.0286 165.013 80.7896 167.213Z" fill="#62626E"/>
<path d="M114.375 169.266C118.614 167.066 120.267 161.846 118.067 157.607C115.867 153.368 110.647 151.715 106.408 153.915C102.169 156.115 100.516 161.335 102.716 165.574C104.916 169.813 110.136 171.466 114.375 169.266Z" fill="#101011"/>
<path d="M106.409 153.917C106.313 153.967 106.236 154.039 106.142 154.092C110.014 152.275 114.658 153.8 116.646 157.631C118.684 161.559 117.153 166.395 113.225 168.433C109.395 170.421 104.719 168.995 102.599 165.279C102.645 165.377 102.667 165.48 102.717 165.576C104.917 169.815 110.136 171.468 114.376 169.269C118.614 167.069 120.268 161.849 118.068 157.61C115.868 153.371 110.648 151.717 106.409 153.917Z" fill="#62626E"/>
<path d="M139.995 155.971C144.234 153.771 145.887 148.551 143.687 144.312C141.487 140.073 136.268 138.42 132.029 140.62C127.789 142.819 126.136 148.039 128.336 152.278C130.536 156.517 135.756 158.17 139.995 155.971Z" fill="#101011"/>
<path d="M132.03 140.621C131.933 140.672 131.856 140.743 131.762 140.797C135.634 138.979 140.279 140.504 142.267 144.336C144.305 148.263 142.774 153.099 138.846 155.137C135.015 157.125 130.34 155.699 128.219 151.984C128.266 152.081 128.287 152.184 128.337 152.281C130.537 156.52 135.757 158.173 139.996 155.973C144.235 153.773 145.888 148.553 143.688 144.314C141.489 140.075 136.269 138.422 132.03 140.621Z" fill="#62626E"/>
<path d="M165.615 142.675C169.854 140.475 171.507 135.255 169.307 131.016C167.107 126.777 161.888 125.124 157.649 127.324C153.41 129.524 151.756 134.743 153.956 138.982C156.156 143.221 161.376 144.875 165.615 142.675Z" fill="#44C4A1"/>
<path d="M157.65 127.326C157.553 127.376 157.476 127.447 157.383 127.501C161.255 125.683 165.899 127.209 167.887 131.04C169.925 134.967 168.394 139.803 164.466 141.841C160.635 143.829 155.96 142.403 153.839 138.688C153.886 138.786 153.907 138.888 153.958 138.985C156.157 143.224 161.377 144.877 165.616 142.677C169.855 140.477 171.508 135.257 169.309 131.018C167.109 126.779 161.889 125.126 157.65 127.326Z" fill="#3EA69B"/>
<path d="M99.8436 203.93C104.083 201.73 105.736 196.51 103.536 192.271C101.336 188.032 96.1162 186.379 91.8772 188.579C87.6381 190.779 85.985 195.998 88.1849 200.237C90.3847 204.476 95.6045 206.13 99.8436 203.93Z" fill="#101011"/>
<path d="M91.8814 188.587C91.7847 188.637 91.7077 188.709 91.6138 188.762C95.4859 186.944 100.13 188.47 102.118 192.301C104.156 196.228 102.625 201.064 98.6975 203.102C94.8666 205.09 90.191 203.664 88.0708 199.949C88.1171 200.047 88.1386 200.149 88.189 200.246C90.3886 204.485 95.6085 206.138 99.8475 203.938C104.086 201.738 105.74 196.518 103.54 192.28C101.34 188.04 96.1204 186.387 91.8814 188.587Z" fill="#62626E"/>
<path d="M125.464 190.634C129.703 188.434 131.356 183.214 129.156 178.975C126.956 174.736 121.736 173.083 117.497 175.283C113.258 177.483 111.605 182.703 113.805 186.942C116.005 191.181 121.225 192.834 125.464 190.634Z" fill="#101011"/>
<path d="M117.502 175.291C117.405 175.341 117.328 175.413 117.234 175.466C121.106 173.648 125.751 175.174 127.739 179.005C129.777 182.932 128.246 187.768 124.318 189.806C120.487 191.795 115.812 190.368 113.691 186.653C113.738 186.751 113.759 186.853 113.81 186.95C116.009 191.189 121.229 192.842 125.468 190.642C129.707 188.443 131.36 183.223 129.161 178.984C126.961 174.744 121.741 173.091 117.502 175.291Z" fill="#62626E"/>
<path d="M151.084 177.339C155.323 175.139 156.976 169.919 154.777 165.68C152.577 161.441 147.357 159.788 143.118 161.988C138.879 164.187 137.226 169.407 139.426 173.646C141.625 177.885 146.845 179.538 151.084 177.339Z" fill="#101011"/>
<path d="M143.122 161.996C143.025 162.046 142.948 162.117 142.855 162.171C146.727 160.353 151.371 161.879 153.359 165.709C155.397 169.637 153.866 174.473 149.938 176.511C146.107 178.499 141.432 177.073 139.312 173.358C139.358 173.455 139.379 173.558 139.43 173.655C141.629 177.894 146.849 179.547 151.088 177.347C155.327 175.147 156.98 169.927 154.781 165.688C152.581 161.449 147.361 159.796 143.122 161.996Z" fill="#62626E"/>
</svg>
